<svg display="block" preserveAspectRatio="xMidYMid" viewBox="0 0 232 131" xmlns="http://www.w3.org/2000/svg"><path d="m0 0h232v131h-232z" fill="#ffe2e5"/><g stroke="#ff707c" stroke-width="2"><g fill="none" stroke-miterlimit="10"><path d="m94.85 17.42h14.1v14.1h-14.1z"/><path d="m108.95 17.42h14.1v14.1h-14.1z"/><path d="m123.05 17.42h14.1v14.1h-14.1z"/><path d="m137.15 17.42h14.1v14.1h-14.1z"/><path d="m151.25 17.42h14.1v14.1h-14.1z"/><path d="m94.85 38.68h14.1v14.1h-14.1z"/><path d="m80.75 38.68h14.1v14.1h-14.1z"/><path d="m66.65 38.68h14.1v14.1h-14.1z"/><path d="m108.95 38.68h14.1v14.1h-14.1z"/><path d="m123.05 38.68h14.1v14.1h-14.1z"/><path d="m137.15 38.68h14.1v14.1h-14.1z"/><path d="m151.25 38.68h14.1v14.1h-14.1z"/></g><path d="m94.85 59.95h14.1v14.1h-14.1z" fill="#ffbcc2" stroke-linecap="round" stroke-linejoin="round"/><path d="m80.75 59.95h14.1v14.1h-14.1z" fill="#ffbcc2" stroke-linecap="round" stroke-linejoin="round"/><path d="m66.65 59.95h14.1v14.1h-14.1z" fill="none" stroke-miterlimit="10"/><g fill="#ffbcc2" stroke-linecap="round" stroke-linejoin="round"><path d="m108.95 59.95h14.1v14.1h-14.1z"/><path d="m123.05 59.95h14.1v14.1h-14.1z"/><path d="m137.15 59.95h14.1v14.1h-14.1z"/></g><g fill="none" stroke-miterlimit="10"><path d="m151.25 59.95h14.1v14.1h-14.1z"/><path d="m94.85 81.22h14.1v14.1h-14.1z"/><path d="m80.75 81.22h14.1v14.1h-14.1z"/><path d="m66.65 81.22h14.1v14.1h-14.1z"/><path d="m108.95 81.22h14.1v14.1h-14.1z"/><path d="m123.05 81.22h14.1v14.1h-14.1z"/><path d="m137.15 81.22h14.1v14.1h-14.1z"/><path d="m151.25 81.22h14.1v14.1h-14.1z"/><path d="m94.85 102.48h14.1v14.1h-14.1z"/><path d="m80.75 102.48h14.1v14.1h-14.1z"/><path d="m66.65 102.48h14.1v14.1h-14.1z"/><path d="m108.95 102.48h14.1v14.1h-14.1z"/><path d="m123.05 102.48h14.1v14.1h-14.1z"/></g></g></svg>