<svg display="block" preserveAspectRatio="xMidYMid" viewBox="0 0 18 18" xmlns="http://www.w3.org/2000/svg"><path d="m15.5 17h-13a1.5 1.5 0 0 1 -1.5-1.5v-13a1.5 1.5 0 0 1 1.5-1.5h1.5v1.5a1.5 1.5 0 0 0 3 0v-1.5h4v1.5a1.5 1.5 0 0 0 3 0v-1.5h1.5a1.5 1.5 0 0 1 1.5 1.5v13a1.5 1.5 0 0 1 -1.5 1.5zm.5-11h-14v9.5a.5.5 0 0 0 .5.5h13a.5.5 0 0 0 .5-.5zm-3.49-3a.557.557 0 0 1 -.5-.6v-1.8a.508.508 0 1 1 1 0v1.8a.557.557 0 0 1 -.5.6zm-7 0a.557.557 0 0 1 -.5-.6v-1.8a.557.557 0 0 1 .5-.6.557.557 0 0 1 .5.6v1.8a.557.557 0 0 1 -.501.6z"/></svg>