<svg display="block" preserveAspectRatio="xMidYMid" viewBox="0 0 18 18" xmlns="http://www.w3.org/2000/svg"><path d="m9 17c4.418278 0 8-3.581722 8-8s-3.581722-8-8-8c-1.23774267 0-2.43733071.28202485-3.52535171.81689233-.80458151.39552958-1.53705057.9241674-2.16664381 1.56161315-1.46864997 1.48696751-2.30800448 3.48917871-2.30800448 5.62149452 0 2.1825168.87952327 4.2277221 2.40982535 5.7227612.39504937.3859461 1.02817134.3785665 1.4141175-.0164828.38594617-.3950494.37856657-1.0281714-.0164828-1.4141175-1.14895246-1.122477-1.80746005-2.653742-1.80746005-4.2921609 0-1.60079482.62838134-3.09974687 1.73095535-4.21607258.47285937-.47875704 1.02271445-.87559864 1.6260336-1.17218831.81496181-.4006325 1.7129003-.61173911 2.64301105-.61173911 3.3137085 0 6 2.6862915 6 6s-2.6862915 6-6 6c-.55228475 0-1 .4477153-1 1s.44771525 1 1 1z" transform="matrix(-.64278761 .76604444 -.76604444 -.64278761 21.679488 7.890688)"/><path d="m7.76254476 4.51251879c.28765601 0 .53228843.20987479.5760286.49418585l.6958558 4.5230627c.10808472.70255066-.37382517 1.35970056-1.07637588 1.46778526-.06475885.0099629-.13018395.0149662-.1957047.0149662-.71063038 0-1.28671012-.5760798-1.28671012-1.28671014 0-.06550361.00500195-.1309116.01496225-.19565351l.69591546-4.52345051c.04374016-.28431106.28837259-.49418585.57602859-.49418585z" transform="matrix(.70710678 -.70710678 .70710678 .70710678 -3.215315 7.762581)"/></svg>