<?xml version="1.0" encoding="UTF-8"?>
<svg width="232px" height="131px" viewBox="0 0 232 131" version="1.1" xmlns="http://www.w3.org/2000/svg" xmlns:xlink="http://www.w3.org/1999/xlink">
    <title>thumbnail</title>
    <defs>
        <rect id="path-1" x="0" y="0" width="21" height="21"></rect>
        <path d="M8.88888889,0.875 C8.88888889,0.391750625 9.28686667,0 9.77777778,0 L15.1111111,0 C15.6020222,0 16,0.391750625 16,0.875 L16,20.125 C16,20.6082406 15.6020222,21 15.1111111,21 L0.888888889,21 C0.397977778,21 0,20.6082406 0,20.125 L0,11.375 C0,10.8917594 0.397977778,10.5 0.888888889,10.5 L4.44446667,10.5 L4.44446667,6.125 C4.44446667,5.64175938 4.84244444,5.25 5.33335556,5.25 L8.88888889,5.25 L8.88888889,0.875 Z" id="path-3"></path>
        <linearGradient x1="42.3555824%" y1="-9.35203125e-07%" x2="57.4767179%" y2="93.1735417%" id="linearGradient-5">
            <stop stop-color="#E6AD10" offset="0%"></stop>
            <stop stop-color="#C87E0E" offset="100%"></stop>
        </linearGradient>
        <linearGradient x1="39.805771%" y1="0%" x2="62.4132158%" y2="95.5919444%" id="linearGradient-6">
            <stop stop-color="#F6D751" offset="0%"></stop>
            <stop stop-color="#E6AD10" offset="100%"></stop>
        </linearGradient>
        <linearGradient x1="27.0629848%" y1="0%" x2="55.1718866%" y2="96.828125%" id="linearGradient-7">
            <stop stop-color="#F9E589" offset="0%"></stop>
            <stop stop-color="#F6D751" offset="100%"></stop>
        </linearGradient>
    </defs>
    <g id="Page-1" stroke="none" stroke-width="1" fill="none" fill-rule="evenodd">
        <g id="thumbnail">
            <rect id="Rectangle" fill="#FDF8DF" fill-rule="nonzero" x="0" y="0" width="232" height="131"></rect>
            <polygon id="Shape" fill="#EFC535" fill-rule="nonzero" points="88.2 122 143.77 122 143.77 61 88.2 61"></polygon>
            <polygon id="Shape" fill="#EFC535" fill-rule="nonzero" points="145.77 122 201.34 122 201.34 53 145.77 53"></polygon>
            <polygon id="Shape" fill="#EFC535" fill-rule="nonzero" points="30.66 122 86.22 122 86.22 44 30.66 44"></polygon>
            <g id="toolbar" transform="translate(27.000000, 17.000000)">
                <mask id="mask-2" fill="white">
                    <use xlink:href="#path-1"></use>
                </mask>
                <g id="Rectangle"></g>
                <g id="Clipped" mask="url(#mask-2)">
                    <g transform="translate(2.000000, 0.000000)">
                        <mask id="mask-4" fill="white">
                            <use xlink:href="#path-3"></use>
                        </mask>
                        <g id="Path" stroke="none" fill="none"></g>
                        <g id="Group" stroke="none" stroke-width="1" fill="none" fill-rule="evenodd" mask="url(#mask-4)">
                            <polygon id="Path" fill="url(#linearGradient-5)" fill-rule="nonzero" points="16 0 16 21 8.88888889 21 8.88888889 0"></polygon>
                            <path d="M11.5555556,6.2125 L11.5555556,21.0875 L4.44444444,21.0875 L4.44444444,5.3375 L10.6666667,5.3375 C11.1575778,5.3375 11.5555556,5.72925937 11.5555556,6.2125 Z" id="Path" fill-opacity="0.2" fill="#000000" fill-rule="nonzero"></path>
                            <path d="M11.5555556,6.5625 L11.5555556,21.4375 L4.44444444,21.4375 L4.44444444,5.6875 L10.6666667,5.6875 C11.1575778,5.6875 11.5555556,6.07925937 11.5555556,6.5625 Z" id="Path" fill-opacity="0.18" fill="#000000" fill-rule="nonzero"></path>
                            <path d="M11.5555556,6.125 L11.5555556,21 L4.44444444,21 L4.44444444,5.25 L10.6666667,5.25 C11.1575778,5.25 11.5555556,5.64175938 11.5555556,6.125 Z" id="Path" fill="url(#linearGradient-6)" fill-rule="nonzero"></path>
                            <path d="M0,10.5 L0,21 L7.11111111,21 L7.11111111,11.375 C7.11111111,10.8917594 6.71313333,10.5 6.22222222,10.5 L0,10.5 Z" id="Path" fill="url(#linearGradient-7)" fill-rule="nonzero"></path>
                        </g>
                    </g>
                </g>
            </g>
        </g>
    </g>
</svg>