<?xml version="1.0" encoding="utf-8"?>
<!-- Generator: Adobe Illustrator 22.1.0, SVG Export Plug-In . SVG Version: 6.00 Build 0)  -->
<svg version="1.1" id="Layer_1" xmlns="http://www.w3.org/2000/svg" xmlns:xlink="http://www.w3.org/1999/xlink" x="0px" y="0px"
	 viewBox="0 0 18 18" style="enable-background:new 0 0 18 18;" xml:space="preserve">
<path d="M16.4,15.5h-1.2V1.9c0-0.3-0.3-0.6-0.6-0.6h-3.7c-0.3,0-0.6,0.3-0.6,0.6v4H7.2c-0.3,0-0.6,0.3-0.6,0.6v4H3.5
	c-0.3,0-0.6,0.3-0.6,0.6v4.3H1.6c-0.3,0-0.6,0.3-0.6,0.6s0.3,0.6,0.6,0.6h14.8c0.3,0,0.6-0.3,0.6-0.6S16.7,15.5,16.4,15.5z
	 M11.5,2.5h2.5v12.9h-2.5V6.5V2.5z M7.8,7.2h2.5v8.3H7.8v-4.3V7.2z M4.1,11.8h2.5v3.7H4.1V11.8z"/>
</svg>
