<svg xmlns="http://www.w3.org/2000/svg" xmlns:xlink="http://www.w3.org/1999/xlink" viewBox="0 0 549 884.73"><defs><style>.cls-1{isolation:isolate;}.cls-2,.cls-3,.cls-4{fill:#fdd5a6;}.cls-25,.cls-3{opacity:0.5;}.cls-25,.cls-3,.cls-31,.cls-33,.cls-34,.cls-35,.cls-36,.cls-4,.cls-6{mix-blend-mode:multiply;}.cls-4{opacity:0.59;}.cls-5{fill:url(#linear-gradient);}.cls-31,.cls-6{opacity:0.2;}.cls-7{fill:url(#linear-gradient-2);}.cls-8{fill:#171515;}.cls-9{fill:url(#linear-gradient-3);}.cls-10{fill:#cdad87;}.cls-11{fill:#163860;}.cls-12{fill:#0c233b;}.cls-13{fill:#dadbd9;}.cls-14{fill:#fff;}.cls-15{fill:#139ad6;}.cls-16{fill:#1980af;}.cls-17{fill:#845f3f;}.cls-18{fill:#c1c0be;}.cls-19{fill:url(#linear-gradient-4);}.cls-20{fill:#5b4026;}.cls-21{fill:url(#linear-gradient-5);}.cls-22{fill:#693521;}.cls-23{fill:#472a16;}.cls-24{fill:#f2f2f2;}.cls-26{fill:#e8e7e6;}.cls-27{fill:#232221;}.cls-28{fill:#46423f;}.cls-29{fill:#2d1c12;}.cls-30{fill:#22160d;}.cls-31{fill:url(#linear-gradient-6);}.cls-32{fill:url(#linear-gradient-7);}.cls-33{opacity:0.1;}.cls-34{fill:#f6f7f7;}.cls-34,.cls-35{opacity:0.8;}.cls-35,.cls-36{fill:#e9e9eb;}.cls-36{opacity:0.65;}.cls-37{fill:#dcad84;}</style><linearGradient id="linear-gradient" x1="195.86" y1="601.61" x2="104.37" y2="568" gradientTransform="translate(-10.78 -29.05) rotate(-1.27)" gradientUnits="userSpaceOnUse"><stop offset="0" stop-color="#715034"/><stop offset="1" stop-color="#996733"/></linearGradient><linearGradient id="linear-gradient-2" x1="184.08" y1="627.73" x2="95.04" y2="595.02" gradientTransform="translate(-10.78 -29.05) rotate(-1.27)" gradientUnits="userSpaceOnUse"><stop offset="0" stop-color="#715035"/><stop offset="1" stop-color="#986733"/></linearGradient><linearGradient id="linear-gradient-3" x1="168.28" y1="776.96" x2="425.47" y2="776.96" gradientUnits="userSpaceOnUse"><stop offset="0" stop-color="#3a2713"/><stop offset="1" stop-color="#2b190c"/></linearGradient><linearGradient id="linear-gradient-4" x1="318.34" y1="614.96" x2="491.08" y2="614.96" gradientTransform="matrix(1, 0, 0, 1, 0, 0)" xlink:href="#linear-gradient-2"/><linearGradient id="linear-gradient-5" x1="351.8" y1="709.76" x2="430.33" y2="709.76" gradientTransform="matrix(1, 0, 0, 1, 0, 0)" xlink:href="#linear-gradient-2"/><linearGradient id="linear-gradient-6" x1="344.17" y1="653.11" x2="465.14" y2="653.11" gradientTransform="matrix(1, 0, 0, 1, 0, 0)" xlink:href="#linear-gradient-2"/><linearGradient id="linear-gradient-7" x1="429.39" y1="625.25" x2="486.68" y2="625.25" gradientTransform="matrix(1, 0, 0, 1, 0, 0)" xlink:href="#linear-gradient-2"/></defs><title>einstein</title><g class="cls-1"><g id="Layer_1" data-name="Layer 1"><path class="cls-2" d="M152.62,503.11c-17.34-23.64-30.47-11.56-33.63-14.19-5.71-4.76-11-10.51-22.12-19.43-7.4-6-23.73-18.42-25.25-5.45C70,478.06,93.5,495.1,91,499.44a9,9,0,0,0-.49,1c-3.48-.27-8.88.34-10.08,4.08L78.7,512c-.79,2.47.34,5.2,1.94,7a2.31,2.31,0,0,1-.36,3.48c-1.79,1.15-3.23,2.33-3.31,6l.14,8.29a7.64,7.64,0,0,0,3.9,6.51,3.37,3.37,0,0,1,1.4,4.38,9.35,9.35,0,0,0-.83,4.87c-.13,2,.43,4.71,2.22,8.93,2.31,5.47,26.35,27.15,47.72,26.2,14.93-.66,27.48-14.3,34.93-44.12a43.19,43.19,0,0,0,3-13.15C170,522.65,157.92,510.34,152.62,503.11Z" transform="translate(0.84 -5.8)"/><path class="cls-3" d="M119,488.92c-5.6-4.9-11-10.51-22.12-19.43-7.4-6-23.73-18.42-25.25-5.45C70,478.06,93.5,495.1,91,499.44a9,9,0,0,0-.49,1l9.33-.07a5.14,5.14,0,0,1,.39-2.17C101.7,496.35,106.69,492.85,119,488.92Z" transform="translate(0.84 -5.8)"/><path class="cls-4" d="M123.26,516.37s5.19,10.38,2,28.25c-1.35,7.55-4.54,14.15-9.65,17.46-6.7,4.33-18.78,3.55-29.29,2.5,4.73,9.06,33.53,23.54,46.62,27.86,38.69,11.77,27-27.19,27-27.19s-19.73-4.54-21.9-22.08C133.83,509.13,127.66,517.16,123.26,516.37Z" transform="translate(0.84 -5.8)"/><path class="cls-5" d="M208.85,517.3c-16.25,11.06-41,5.78-41,5.78s6.5,43.15-56.77,63.65c0,0-1,3.82,1.25,6s48.39,19.11,60.52,20.33l19-69.84S219,512,208.85,517.3Z" transform="translate(0.84 -5.8)"/><g class="cls-6"><path class="cls-7" d="M191,570.37l-18.16,42.7c-12.13-1.22-58.23-18.14-60.52-20.33s-1.25-6-1.25-6c11.78-3.82,20.78-8.14,28.2-13.08C139.25,573.66,165.76,585.08,191,570.37Z" transform="translate(0.84 -5.8)"/></g><path class="cls-8" d="M214.35,811.55s-53.7,29-30.59,51.06C210.11,887.8,303.42,871,303,842.52,302.57,807.42,214.35,811.55,214.35,811.55Z" transform="translate(0.84 -5.8)"/><path class="cls-8" d="M293.18,836.3s-15.71,41.24,21.6,50.08c28,8.5,76.72,4.66,102.5-18.17,3.43-3-2.37-17.89-3.31-23.08C399.73,766.58,293.18,836.3,293.18,836.3Z" transform="translate(0.84 -5.8)"/><path class="cls-9" d="M168.28,688.38s.13,64.36,50.27,109.63c0,0-6.94,7.72-8.64,16.3,0,0,55.8-4.07,80.82,40.16,0,0,5.64-20.79,31.18-25.66C363.15,821,375.8,858.15,425.39,866c0,0,1.84-18.9-11.94-48.7-11.69-25.27,0-86.76,0-86.76V687.92Z" transform="translate(0.84 -5.8)"/><path class="cls-6" d="M359.38,834.89c18.26,9.65,34.83,26.18,66,31.12,0,0,1.84-18.9-11.94-48.7-11.69-25.27,0-86.76,0-86.76V687.92l-53.07.1S348.59,829.19,359.38,834.89Z" transform="translate(0.84 -5.8)"/><path d="M286.14,770.88s12,13.46,11.25,27.2-10.71,29.14-6.66,56.4c0,0,1.35-27.13,8.35-42.92C302.29,804.3,303.75,782.89,286.14,770.88Z" transform="translate(0.84 -5.8)"/><path class="cls-2" d="M322.12,462.55l2.13,20.06s-18.38,31.58-56.77,28.59c-15.16-1.18-35.44-6.82-37-15.08-2.38-12.68.25-20.4.25-20.4Z" transform="translate(0.84 -5.8)"/><path class="cls-10" d="M315.54,491.83s-38.45,13.32-90.46-.69l1.25-12.48,91.37-13.17Z" transform="translate(0.84 -5.8)"/><path class="cls-11" d="M328.69,508.62s-4.08,162-10.13,190.05c0,0-98.54,16-148.49-13.27,0,0-8-82.73,50.73-159.81Z" transform="translate(0.84 -5.8)"/><path class="cls-12" d="M220.61,532.77s-42.2,72.7-43.86,156.15l-6.67-3.51,7.87-85.27,26.54-53.07,13.91-20Z" transform="translate(0.84 -5.8)"/><path class="cls-12" d="M292.54,549h0a7.18,7.18,0,0,0-.71.35l-.08.27.27.08a6.82,6.82,0,0,1,.67-.33l.11-.25Z" transform="translate(0.84 -5.8)"/><path class="cls-12" d="M290.53,550.19q-.58.4-1.23.89l0,.27.27,0q.65-.49,1.22-.88l.05-.27-.27-.05Z" transform="translate(0.84 -5.8)"/><path class="cls-12" d="M286.93,553l0,.27.27,0,1.16-1,0-.27-.27,0Z" transform="translate(0.84 -5.8)"/><path class="cls-12" d="M257.84,581.75h0l-1,1.1v.28h.28l1-1.1v-.28Z" transform="translate(0.84 -5.8)"/><path class="cls-12" d="M266.23,573h0l-1.05,1.09v.28h.28l1.05-1.09V573Z" transform="translate(0.84 -5.8)"/><path class="cls-12" d="M259.93,579.55h0l-1,1.1v.28h.28l1-1.1v-.28Z" transform="translate(0.84 -5.8)"/><path class="cls-12" d="M264.12,575.17l-1.05,1.09v.28h.28l1.05-1.09v-.28Z" transform="translate(0.84 -5.8)"/><path class="cls-12" d="M262,577.36l-1,1.1v.28h.28l1-1.09v-.28Z" transform="translate(0.84 -5.8)"/><path class="cls-12" d="M255.76,584h0l-1,1.1v.28H255l1-1.1v-.28Z" transform="translate(0.84 -5.8)"/><path class="cls-12" d="M251.62,588.38h0l-1,1.11v.28h.28l1-1.11v-.28Z" transform="translate(0.84 -5.8)"/><path class="cls-12" d="M249.56,590.6l-1,1.11V592h.28l1-1.11v-.28Z" transform="translate(0.84 -5.8)"/><path class="cls-12" d="M253.69,586.16h0l-1,1.11v.28h.28l1-1.11v-.28Z" transform="translate(0.84 -5.8)"/><path class="cls-12" d="M275.83,563.31v.28h.28l1.08-1.06v-.28h-.28Z" transform="translate(0.84 -5.8)"/><path class="cls-12" d="M279.09,560.14,278,561.19v.28h.28l1.09-1.05v-.28h-.28Z" transform="translate(0.84 -5.8)"/><path class="cls-12" d="M282.4,557v.28h.28l1.12-1V556h-.28Z" transform="translate(0.84 -5.8)"/><path class="cls-12" d="M280.18,559.09v.28h.28l1.1-1v-.28h-.28Z" transform="translate(0.84 -5.8)"/><path class="cls-12" d="M285.78,554l-1.14,1,0,.28.28,0,1.14-1,0-.28-.28,0Z" transform="translate(0.84 -5.8)"/><path class="cls-12" d="M274.75,564.37l-1.08,1.07v.28h.28l1.07-1.07v-.28h-.28Z" transform="translate(0.84 -5.8)"/><path class="cls-12" d="M272.6,566.51h0l-1.07,1.07v.28h.28l1.07-1.07v-.28Z" transform="translate(0.84 -5.8)"/><path class="cls-12" d="M270.47,568.66l-1.06,1.08V570h.28l1.06-1.08v-.28Z" transform="translate(0.84 -5.8)"/><path class="cls-12" d="M268.34,570.82l-1.06,1.08v.28h.28l1.06-1.08v-.28Z" transform="translate(0.84 -5.8)"/><path class="cls-12" d="M247.53,592.8h0l-.18.2v-.28l-.2-.2-.2.2v.39l-.31-.23-.27,0,0,.27.63.48h0l0,0,.21-.05.52-.57v-.28Z" transform="translate(0.84 -5.8)"/><polygon class="cls-12" points="248.19 585.36 248.19 583.8 247.99 583.6 247.79 583.8 247.79 585.36 247.99 585.55 248.19 585.36"/><polygon class="cls-12" points="248.19 582.24 248.19 580.68 247.99 580.48 247.79 580.68 247.79 582.24 247.99 582.43 248.19 582.24"/><polygon class="cls-12" points="248.19 579.12 248.19 578.34 247.99 578.14 247.79 578.34 247.79 579.12 247.99 579.31 248.19 579.12"/><path class="cls-12" d="M222.11,535.89l-.22-.16-.16.22s0,.27.13.77l.23.16.16-.23C222.15,536.15,222.11,535.89,222.11,535.89Z" transform="translate(0.84 -5.8)"/><polygon class="cls-12" points="222.56 530.15 222.56 530.15 222.56 530.15 222.56 530.15"/><polygon class="cls-12" points="223.55 535.41 223.55 535.41 223.55 535.41 223.55 535.41"/><path class="cls-12" d="M223.09,541.13l-.23-.15-.15.23q.15.71.31,1.49l.23.15.15-.23Q223.24,541.84,223.09,541.13Z" transform="translate(0.84 -5.8)"/><path class="cls-12" d="M222.51,538.14l-.23-.16-.16.23c.08.44.18.94.29,1.5l.23.15.15-.23C222.68,539.09,222.59,538.59,222.51,538.14Z" transform="translate(0.84 -5.8)"/><polygon class="cls-12" points="222.96 532.41 222.96 532.41 222.96 532.41 222.96 532.41"/><polygon class="cls-12" points="227.22 550.22 227.22 550.22 227.22 550.22 227.22 550.22"/><polygon class="cls-12" points="228.11 553.15 228.11 553.15 228.11 553.15 228.11 553.15"/><path class="cls-12" d="M225.69,552.85l-.14.24.41,1.47.24.13.13-.24-.41-1.47Z" transform="translate(0.84 -5.8)"/><path class="cls-12" d="M223.73,544.11l-.23-.15-.15.23h0l.34,1.49.23.15.15-.23Z" transform="translate(0.84 -5.8)"/><path class="cls-12" d="M224.91,549.9l-.14.24.38,1.48.24.14.14-.24-.38-1.47Z" transform="translate(0.84 -5.8)"/><path class="cls-12" d="M224.42,547.08l-.24-.14-.14.24h0l.36,1.48.24.14.14-.24Z" transform="translate(0.84 -5.8)"/><path class="cls-12" d="M226.52,555.78l-.13.24.43,1.46.24.13.13-.24-.43-1.46Z" transform="translate(0.84 -5.8)"/><path class="cls-12" d="M227.39,558.7l-.13.24.46,1.46.25.13.13-.25-.46-1.45Z" transform="translate(0.84 -5.8)"/><path class="cls-12" d="M235.33,578.5l-.08.26q.36.68.73,1.34l.27.08.08-.27q-.37-.66-.73-1.34Z" transform="translate(0.84 -5.8)"/><path class="cls-12" d="M238.41,583.76l-.06.27q.42.64.86,1.27l.27,0,0-.27q-.43-.62-.85-1.26Z" transform="translate(0.84 -5.8)"/><path class="cls-12" d="M234,575.77l-.09.26q.33.69.68,1.37l.26.09.09-.26q-.34-.68-.68-1.36Z" transform="translate(0.84 -5.8)"/><path class="cls-12" d="M244.38,590.89h-.28v.28q.55.54,1.12,1l.28,0,0-.28Q244.93,591.42,244.38,590.89Z" transform="translate(0.84 -5.8)"/><path class="cls-12" d="M242,588.66l0,.28q.5.59,1,1.14h.28v-.28q-.51-.55-1-1.13Z" transform="translate(0.84 -5.8)"/><path class="cls-12" d="M240.14,586.27l0,.27h0q.46.62.93,1.21l.27,0,0-.27q-.47-.59-.93-1.2Z" transform="translate(0.84 -5.8)"/><path class="cls-12" d="M236.81,581.16l-.07.27h0q.39.66.79,1.31l.27.06.06-.27q-.4-.64-.78-1.3Z" transform="translate(0.84 -5.8)"/><path class="cls-12" d="M230.36,567.35l-.11.25.55,1.42.25.11.11-.25-.55-1.42Z" transform="translate(0.84 -5.8)"/><path class="cls-12" d="M229.31,564.49l-.12.25.52,1.44.25.12.12-.25-.52-1.43Z" transform="translate(0.84 -5.8)"/><path class="cls-12" d="M228.33,561.61l-.12.25.49,1.45.25.12.12-.25-.49-1.44Z" transform="translate(0.84 -5.8)"/><path class="cls-12" d="M231.48,570.19l-.11.25.59,1.41.26.1.1-.26-.59-1.4Z" transform="translate(0.84 -5.8)"/><polygon class="cls-12" points="233.42 567.46 233.42 567.46 233.42 567.46 233.42 567.46"/><path class="cls-12" d="M232.68,573l-.1.26.63,1.39.26.09.09-.26-.63-1.39Z" transform="translate(0.84 -5.8)"/><polygon class="cls-12" points="247.25 587.38 247.25 587.38 247.25 587.38 247.25 587.38"/><path class="cls-13" d="M288.91,536.92l-23.67,26.3-28.62-2.89s-6.09-30.4.35-45.23l3.75-6.48,50.93,5.72Z" transform="translate(0.84 -5.8)"/><path class="cls-14" d="M318.55,487.51h16l-2,14.28-38.35,66.73-25-47.65-5.64-4.18-38.24,43.71s-6.69-18.68-5.92-36.77c.07-1.75,8-8.79,8.2-10.51,1.16-8.82-8.07-10.63-1.58-14.07C226.08,499.06,281.24,535.36,318.55,487.51Z" transform="translate(0.84 -5.8)"/><path class="cls-15" d="M258.6,523.13,236,557.32s1.64,18.28,10.48,26.47c-.45.37,17.25-19,24.3-26.79l-.46-33.88Z" transform="translate(0.84 -5.8)"/><path class="cls-12" d="M173.25,680.72l.71.32.26-.1-.1-.26-.7-.32-.26.09.09.26Z" transform="translate(0.84 -5.8)"/><path class="cls-12" d="M178.23,682.76l1.44.53.25-.12-.12-.25-1.44-.53-.25.11.11.25Zm-2.86-1.12,1.43.57.25-.11-.11-.25-1.42-.57-.25.11.11.25Z" transform="translate(0.84 -5.8)"/><path class="cls-12" d="M314.59,691.57l1.51-.25.16-.22-.22-.16-1.51.25-.16.22.22.16Zm-3,.47,1.52-.23.16-.22-.22-.16-1.51.23-.16.22.22.16Zm-3,.45,1.52-.22.16-.22-.22-.16-1.52.22-.17.22.22.17Zm-3,.42,1.52-.21.17-.22-.22-.17-1.52.21-.17.22.22.17Zm-3,.4,1.52-.19.17-.22-.22-.17-1.52.19-.17.22.22.17Zm-3,.37,1.52-.18.17-.22-.22-.17-1.52.18-.17.22Zm-3,.34,1.52-.17.17-.22-.22-.17-1.52.17-.17.21.21.17Zm-3.05.31,1.53-.15L295,694l-.21-.17-1.52.15-.18.21Zm-3.05.29,1.53-.14.18-.21-.21-.18-1.53.14-.18.21.21.18Zm-3.06.26,1.53-.13.18-.21-.21-.18-1.53.13-.18.21.21.18Zm-3.06.23,1.53-.11.18-.21-.21-.18-1.53.11-.18.21.21.18Zm-3.06.2,1.53-.1.18-.21-.21-.18-1.53.1-.18.21.21.18Zm-3.06.18,1.53-.08.18-.21-.21-.18-1.53.08-.18.21Zm-3.06.15,1.53-.07.19-.2-.2-.19-1.53.07-.19.2Zm-3.07.12,1.53-.05.19-.2-.2-.19-1.53.05-.19.2Zm-3.07.09,1.53,0,.19-.2-.2-.19-1.53,0-.19.2.2.19Zm-3.07.06,1.53,0,.19-.2-.2-.19-1.53,0-.19.2.2.19Zm-3.07,0h1.53l.19-.2-.2-.19h-1.53l-.19.2.2.19Zm-3.07,0h1.53l.2-.2-.19-.2h-1.53l-.2.19.19.2Zm-3.07,0,1.53,0,.2-.19-.19-.2-1.53,0-.2.19.19.2Zm-3.07-.06,1.53,0,.2-.19-.19-.2-1.53,0-.2.19Zm-3.07-.09,1.53.05.2-.19-.19-.2-1.53-.05-.2.19.19.2Zm-3.06-.13,1.53.07.2-.19-.19-.2-1.53-.07-.2.19.19.2Zm-3.06-.16,1.53.08.21-.18-.18-.2-1.53-.08-.21.18.18.21Zm-3.06-.19,1.53.1.21-.18-.18-.21-1.53-.1-.21.18.18.21Zm-3.06-.22,1.53.12.21-.18-.18-.21-1.53-.12-.21.18.18.21Zm-3.06-.26,1.53.13.21-.18-.18-.21-1.53-.13-.21.18Zm-3.05-.29,1.53.15.21-.18-.18-.21-1.52-.15-.21.17.17.21Zm-3.05-.32,1.52.17.21-.17-.17-.21-1.52-.17-.22.17Zm-3-.36,1.52.18.22-.17-.17-.22-1.52-.18-.22.17.17.22Zm-3-.39,1.52.2.22-.17-.17-.22L223,693l-.22.17.17.22Zm-3-.43,1.52.22.22-.17-.17-.22-1.52-.22-.22.16.16.22Zm-3-.46,1.52.24.22-.16-.16-.22-1.51-.24-.22.16.16.22Zm-3-.5,1.51.26.22-.16-.16-.22-1.51-.25-.23.16.16.23Zm-3-.54,1.51.27.23-.16-.16-.23-1.51-.27-.23.16.16.23Zm-3-.58,1.51.29.23-.16-.16-.23-1.5-.29-.23.15.15.23Zm-3-.62,1.5.31.23-.15-.15-.23-1.5-.31-.23.15.15.23Zm-3-.66,1.5.33.23-.15-.15-.23-1.5-.33-.23.15Zm-3-.7,1.49.35.23-.15-.15-.23-1.49-.35-.24.14.14.24Zm-3-.74,1.49.37.24-.14-.14-.24-1.49-.37-.24.14.14.24Zm-3-.78,1.48.4.24-.14-.14-.24-1.48-.4-.24.14.14.24Zm-3-.83,1.48.42.24-.14-.14-.24-1.47-.42-.24.13.13.24Zm-2.94-.88,1.47.44.24-.13-.13-.24-1.47-.44-.24.13Zm-2.93-.93,1.46.47.24-.13-.13-.24-1.46-.47-.25.12.12.25Zm-2.91-1,1.45.5.25-.12-.12-.25-1.45-.5-.25.12.12.25Z" transform="translate(0.84 -5.8)"/><path class="cls-12" d="M317.64,691.07l.77-.13.16-.23-.23-.16-.77.13-.16.22.22.16Z" transform="translate(0.84 -5.8)"/><path class="cls-16" d="M256,527.12s5.92,5.76,14.48,1.39l0-4-12.4-.53Z" transform="translate(0.84 -5.8)"/><path d="M176.75,688.92s3.29,20.58,6.06,27.51l-11.5-3.76.42-25.65.64-.4Z" transform="translate(0.84 -5.8)"/><path d="M409.92,755.13s-9.43,7-42.59,11.26c0,0-37.06-5.07-48.77-67.71l92.25,48.42Z" transform="translate(0.84 -5.8)"/><path class="cls-17" d="M226.43,517.71s-71.9,108.7-48.22,196.12c0,0-18.73-1.29-23.41-10.79s9.35-110.88,70-187.89Z" transform="translate(0.84 -5.8)"/><polygon class="cls-18" points="271.22 518.22 272.89 549.85 271.67 551.21 271.22 518.22"/><path class="cls-19" d="M436,668.11c.4.63.65,1,.65,1,53.91-21.37,62.1-89.74,48.83-106.16-9.9-12.25-10.45-8.83-32.7-58.39s-76-33.41-76-33.41l-44.2,13.63s-16.39,203.2-14,213.93,15.22,49,46.83,62.63c0,0,84.29-8.05,99.9-58.27C465.3,703,447.95,691.34,436,668.11Z" transform="translate(0.84 -5.8)"/><path class="cls-20" d="M441.21,667.2S417.69,631.51,427.44,599c0,0-17.16,25.67,9.14,70.31Z" transform="translate(0.84 -5.8)"/><path class="cls-20" d="M371.06,743.73c3,1.3,60.67-14,61.84-27.69l-18.34-36.29-61.66,19.12S368.09,742.42,371.06,743.73Z" transform="translate(0.84 -5.8)"/><path class="cls-21" d="M370.54,742.32c3.61.74,58.64-15.19,59.79-28.85l-18-36.29L351.8,696.29S366.92,741.58,370.54,742.32Z" transform="translate(0.84 -5.8)"/><path class="cls-22" d="M348.46,688.41s43.58-11.17,59.86-21.54c0,0,4.81,9.71,6.24,12.88-10.89,8.57-49.34,20.68-61,21.85Z" transform="translate(0.84 -5.8)"/><path class="cls-20" d="M427.44,599s-23.24-24.29-19.9-53.85A142.21,142.21,0,0,0,427.44,599Z" transform="translate(0.84 -5.8)"/><path class="cls-23" d="M346.38,497.39s.18,30,18.89,55.64c0,0-23.41,6.13-33.63,15.5l25,4.56s-5.05,20.13-37.41,96.35L333.1,498.68Z" transform="translate(0.84 -5.8)"/><path class="cls-22" d="M338.2,488.59s-.37,30.72,16,56.74c0,0-21.19,10.88-25.49,21.87l23.91-1.25S324,630.16,319.22,669.18l7.29-171.92Z" transform="translate(0.84 -5.8)"/><path class="cls-18" d="M235.23,551.17c4-4.33,14.09-17.95,14.09-17.95L235,549.57S235,551.47,235.23,551.17Z" transform="translate(0.84 -5.8)"/><polygon class="cls-12" points="326.86 509.59 295.1 562.73 326.2 508.74 326.86 509.59"/><path class="cls-16" d="M236,557.32l1.15-1.75s2.18,17.81,9.33,28.22C246.52,583.8,238.59,578.38,236,557.32Z" transform="translate(0.84 -5.8)"/><path class="cls-12" d="M235.23,551.17c-.85,1.32-7.57,6.77-7.57,6.77l7.32-8.37Z" transform="translate(0.84 -5.8)"/><path class="cls-15" d="M278.11,517.57c0,4.94-6.17,8.95-13.79,8.95s-13.79-4-13.79-8.95c0-8,6.17-8.95,13.79-8.95S278.11,509.86,278.11,517.57Z" transform="translate(0.84 -5.8)"/><ellipse class="cls-20" cx="308.39" cy="462.9" rx="88.01" ry="32.77"/><path class="cls-24" d="M159.77,427.66C141.87,400.22,99,436.45,87,446.36s4.53-28.44,19.53-34c0,0-34.11-1.33-39.72,22.57a47,47,0,0,1,16-42.78S48.2,421,40.5,432.82c1.15-7.7,3-16.63,3-16.63L17.38,420s-6.94-66.8,38.54-79-3-6.07-3-6.07S39.16,310.72-.84,320.81c0,0,17.44-137.92,100.78-148.51,0,0-7.93-29.88-37-23.95,0,0,4.35-15.4,16.72-15L56.47,121s71.74-41.21,129.62,21.8c0,0,20.58-92.24,20.28-104.57s.74-25.06-3.65-32.44c0,0,27.68,5.12,27.94,17.74,0,0,4.5-10.73-4.56-16.86,0,0,47.56,19.26,43.38,41.8L273,29.19s14.47,7.39,15.4,16.3,3.68-20.26,3.68-20.26,47.58,18.11,50.37,88.51c0,0,123.91-46.46,164.7,79.06l-31.4-5.71S500,197.18,503.47,213c0,0,38.25,10.29,38.25,104.67,0,0-9.37-39.06-37.88-43.75,0,0,41.91,17.92,44.32,106.14,0,0-15.34-13.6-29.17-18,0,0,30.8,19.51,19.83,69.4,0,0-5.33-12.69-29.06-15.1l3.37,9.46-18.71-9.07s-59.45,4.83-75.15,23.08c0,0-2.33-23.77-21.08-11.61Z" transform="translate(0.84 -5.8)"/><path class="cls-2" d="M436.38,386.18c-4,52.11-38.61,105.73-110.56,103.64-14.75-.43-29.89,3.38-45.67,2.17C217,487.17,155.46,495.58,148,405.57c-.12-1.42-1-2.67-1.44-4a95.65,95.65,0,0,1-4.78-37.86c4.93-64.65,78-113.52,159.39-107.31A175,175,0,0,1,343.93,265C402.18,284.69,440.4,333.54,436.38,386.18Z" transform="translate(0.84 -5.8)"/><g class="cls-25"><path class="cls-2" d="M237.22,262.92a179.87,179.87,0,0,1,64-6.55A175,175,0,0,1,343.93,265c58.25,19.69,96.47,68.54,92.45,121.17-1.82,23.87-19,101.06-104.75,104.3,0,0,116.52-78.49,16.59-164.54C296.58,281.47,237.22,262.92,237.22,262.92Z" transform="translate(0.84 -5.8)"/></g><path class="cls-26" d="M220.67,375.36s3.4-24.17-13.56-22.19C213.88,357.49,211,364,211,364s-9.21-28.15-45.16-.12c0,0,11.86-4.36,16.2-1.85,0,0-16.17,1.4-16.65,10.32,0,0,6.81-1.87,8.92.48,0,0-10.3,8.66,3.86,19.57C178.17,392.43,202.11,371.26,220.67,375.36Z" transform="translate(0.84 -5.8)"/><ellipse class="cls-27" cx="207.06" cy="408.47" rx="18.05" ry="12.03" transform="translate(-215.14 578.03) rotate(-85.63)"/><ellipse class="cls-27" cx="323.43" cy="408.47" rx="18.05" ry="12.03" transform="matrix(0.08, -1, 1, 0.08, -107.63, 694.06)"/><path class="cls-24" d="M159.77,427.66s-2.66-86.16,18.36-85.73c0,0,9.11,15.23,16.34,16,1.36.14.55-42.93,24.89-53.31,0,0,77.27,41.71,88.95,24.29-2.57-1.94-31.08-16.83-28.21-29.74,1.6-7.2,64.76,1.45,84.75,66.29,4.36,3.2,12.89-7.51,16.68-24.27,7.08-31.32,19.13,56.53,19.42,57.86s7-1,13.3-8.16-4.42,49.52-6.31,55.39c14.73-9.95,26.27-14.57,32.11-57.79,5.37-39.7-24.05-92.64-57.3-114.35-27.07-17.67-88.46-31.89-165.19-9.11C125.89,292.22,137.94,371.28,139.3,384,141.71,406.55,159.29,421.22,159.77,427.66Z" transform="translate(0.84 -5.8)"/><path class="cls-26" d="M320,383.22s27.31,0,39.54,13.31c0,0,18.23-8.39-1.79-18.21,0,0,6-2,9.76,1.08,0,0,.44-13.06-20.15-12.07a16.48,16.48,0,0,1,13.46-.75s-18.15-19.31-31.13-1.68c0,0,1.69-7.61,8.23-10-6.54-.4-28.31-1.77-26.36,27.19Z" transform="translate(0.84 -5.8)"/><path class="cls-26" d="M159.69,413.66s-20.55-21.58-54.91,5.81c0,0,49.09-9.62,55,8.19Z" transform="translate(0.84 -5.8)"/><path class="cls-26" d="M70.7,385.2c36.4-21.59,55.9-9.74,55.9-9.74-38.49-1.27-44.74,29.27-44.74,29.27,40-27.73,78.59-12.11,78.59-12.11l1-11.61.09,0,1.49-12C104.78,341,70.7,385.2,70.7,385.2Z" transform="translate(0.84 -5.8)"/><path class="cls-26" d="M55.12,318.82s74.85-38.3,123,23.11C178.13,341.93,127.68,302,55.12,318.82Z" transform="translate(0.84 -5.8)"/><path class="cls-26" d="M465.3,407.05c12.82-4.47,30-6.24,46.8,8.84,1.85,1.66,1,9.9,1,9.9l-18.71-9.07s-68.34,16.72-86.48,29.51C408.73,444.15,430.54,419.17,465.3,407.05Z" transform="translate(0.84 -5.8)"/><path class="cls-26" d="M548.16,380.06s-16.8-57.95-39.24-57.3C508.92,322.76,542.72,308.52,548.16,380.06Z" transform="translate(0.84 -5.8)"/><path class="cls-26" d="M359.07,133.36s103.36-28.63,148.07,59.44C507.14,192.8,453.51,119.7,359.07,133.36Z" transform="translate(0.84 -5.8)"/><path class="cls-26" d="M541.81,319.12S539.31,231.45,498,226.9c0,0-.93-21.8-20.75-39.13,0,0,23.09,9,26.24,25.23C503.47,213,547.92,224.11,541.81,319.12Z" transform="translate(0.84 -5.8)"/><path class="cls-26" d="M345,139.22s-19.12-89-53-114c0,0,50.52,18.17,50.37,88.51Z" transform="translate(0.84 -5.8)"/><path class="cls-26" d="M83.16,120.48s91.32-28.1,139.71,96.39C222.87,216.87,181.89,135.31,83.16,120.48Z" transform="translate(0.84 -5.8)"/><path class="cls-26" d="M83.16,143.9S115.55,140,125.7,181C125.7,181,131.16,124.39,83.16,143.9Z" transform="translate(0.84 -5.8)"/><path class="cls-26" d="M-.6,319.12S38.67,196.8,99.94,172.3C99.94,172.3,21.39,173.18-.6,319.12Z" transform="translate(0.84 -5.8)"/><path class="cls-26" d="M213.69,303.12c-27-9.78-91.5-43.32-78.24-83.9,0,0-29.35,42.93,29.66,67.51,0,0-34.34-9.61-48.25,1.17,0,0,56.41,8.75,90,27.2,0,0,5.74-7.82,12.5-10.51C219.36,304.59,215.07,303.62,213.69,303.12Z" transform="translate(0.84 -5.8)"/><path class="cls-26" d="M308.3,328.87s-106.54-56.18-38.23-61.72C270.07,267.16,149,251,308.3,328.87Z" transform="translate(0.84 -5.8)"/><path class="cls-26" d="M308.3,328.87s-6.07,19.13-77.14-18.26C231.17,310.61,286,332.64,308.3,328.87Z" transform="translate(0.84 -5.8)"/><path class="cls-26" d="M202.72,5.8s10.58,20.79-16.63,137C186.09,142.81,252.3,40.84,202.72,5.8Z" transform="translate(0.84 -5.8)"/><path class="cls-26" d="M325.26,219.22s39.42-39.16,73-24c0,0-26.89-26.23-63.65-9.58,0,0,12.23-10.06,24.5-13.35,0,0-22.89-.64-30.37,4.8,0,0-14.39-39.83-92.37-21.1C236.32,156,319.83,148.6,325.26,219.22Z" transform="translate(0.84 -5.8)"/><path class="cls-22" d="M228.32,497.89s-35.65,26.88-36.18,27.41L191,536.75l-8.88,7.06S168.9,601.71,171.54,614c0,0,27.39-64.85,54.09-100C229.91,508.3,228.32,497.89,228.32,497.89Z" transform="translate(0.84 -5.8)"/><path class="cls-26" d="M314.37,142.81c-18.23-18-38.59-39.22-42.32-56.46-1.59-7.34-1.8-17.9-.65-30,2.41-25.49-11.4-39.48-45.3-49.64,0,0,28.85,14.42,29.46,71.38-6.08-7-20.21-15.45-20.21-15.45,18.72,13.54,12.39,29.35,19.38,39.75C261.18,112,314.37,142.81,314.37,142.81Z" transform="translate(0.84 -5.8)"/><path class="cls-26" d="M241.9,442.76c-17.27-13.39-69.48-23.66-62.8,60.79,0,0,3.54-13.29,11.91-12.68,0,0-3.53,20.76,7.32,25.18,0,0,5.24-20.69,13.58-16.1,0,0,15.52,25.44,29.21,27.26,0,0-3.52-18,5.47-18.3l14.08,20.9,13.42-23.37s9.52,10.76,3.43,15.42c0,0,12.44.9,15.37-13.63,0,0,15.68,5.57,12.81,19.61,0,0,11.17-5.48,11.49-22.85l13.14,17.17,3.7-27.86s21.77,8.37,22,17.85c0,0,6.18-24-12-40.4l21.87,3.9S318,420.06,278.3,449.59C272.23,454.1,264.56,460.33,241.9,442.76Z" transform="translate(0.84 -5.8)"/><path class="cls-13" d="M299.45,468.82s54.71,1.21,57,41.16C356.46,510,335.74,472.78,299.45,468.82Z" transform="translate(0.84 -5.8)"/><path class="cls-13" d="M241.11,527.22s-.8-39.45,14.88-49.88C256,477.34,223.61,488.2,241.11,527.22Z" transform="translate(0.84 -5.8)"/><path class="cls-13" d="M305.7,527.85s9-27-6.25-36.2C299.45,491.65,327.95,499.53,305.7,527.85Z" transform="translate(0.84 -5.8)"/><path class="cls-13" d="M260.67,529.82S274.32,500.11,271.4,487a19.53,19.53,0,0,1,4.31,9.09C277.23,503.49,275.64,515.16,260.67,529.82Z" transform="translate(0.84 -5.8)"/><path class="cls-13" d="M268.26,473.85s13.73,26.84,5.29,33.31l.53,4.05a7.3,7.3,0,0,1,5.55,6.76C279.76,519.3,289.33,496.95,268.26,473.85Z" transform="translate(0.84 -5.8)"/><path class="cls-13" d="M240.54,525.9s-23.65-36-4.62-52.35c0,0-33.89,28.23,5.19,53.67" transform="translate(0.84 -5.8)"/><path class="cls-13" d="M198.33,516.06s8.55-28.54,21.92-29.66C220.25,486.4,189,479.34,198.33,516.06Z" transform="translate(0.84 -5.8)"/><path class="cls-13" d="M179.1,503.56s5.22-14.72,23.37-14.16l6.71-3S182.85,475.26,179.1,503.56Z" transform="translate(0.84 -5.8)"/><path class="cls-13" d="M253.91,462.55s-54-50.6-69.53,12.21c0,0,11.89-24.6,27.83-21.74,0,0-8.51,3.36-8.51,10.92C203.71,463.94,218.79,446.84,253.91,462.55Z" transform="translate(0.84 -5.8)"/><path class="cls-13" d="M273.55,459s39.29-25.19,68.63,3.53C342.18,462.55,321,447.59,273.55,459Z" transform="translate(0.84 -5.8)"/><path class="cls-28" d="M472.62,582.83c2.75,13.58,8.24,24.76,14.06,30,6.65-21.35,6.56-39.16-1-49.86-2.51-3.54-7.29-8.62-11.85-15.17C470.25,554.77,469.81,568.89,472.62,582.83Z" transform="translate(0.84 -5.8)"/><path class="cls-6" d="M285.34,770.87a221.5,221.5,0,0,1,.25,26.87c-.49,8.34-18.94,30.89-17.49,31.94,8.37,6.08,19.27,19.52,22.31,23.83,0,0-1.38-26.18,5.62-42C299.25,804.3,303,782.88,285.34,770.87Z" transform="translate(0.84 -5.8)"/><path class="cls-23" d="M322.86,687.17c0,4.51,4.9,8.76,9.41,8.76a8.16,8.16,0,0,0,8.16-8.16c0-4.51-4.57-9.69-9.08-9.69S322.86,682.67,322.86,687.17Z" transform="translate(0.84 -5.8)"/><circle class="cls-29" cx="331.25" cy="680.11" r="8.16"/><path class="cls-30" d="M327.85,682.63a1.8,1.8,0,0,1,1.43.71l.16.2.18-.18a1.6,1.6,0,0,1,2-.27,1.67,1.67,0,0,1,.59.61l.1.17.18-.08a2,2,0,0,1,2.25.42,2.06,2.06,0,0,1,0,2.89,2,2,0,0,1-1.83.56l-.16,0-.08.14a1.43,1.43,0,0,1-.51.53,1.42,1.42,0,0,1-1.35.06l-.21-.1-.09.21a1.66,1.66,0,0,1-.6.73,1.65,1.65,0,0,1-1.88,0,1.66,1.66,0,0,1-.6-.78l-.07-.18-.19,0a1.51,1.51,0,0,1-1.39-.42,1.55,1.55,0,0,1,.31-2.42l.17-.1-.08-.18a1.8,1.8,0,0,1,1.66-2.52m0-.25h0a2.05,2.05,0,0,0-1.9,2.84,1.8,1.8,0,0,0-.34,2.8,1.76,1.76,0,0,0,1.59.49,1.9,1.9,0,0,0,3.52.09,1.68,1.68,0,0,0,1.56-.08,1.69,1.69,0,0,0,.59-.6,2.27,2.27,0,0,0,2-.63,2.31,2.31,0,0,0,0-3.25,2.26,2.26,0,0,0-2.51-.49,1.92,1.92,0,0,0-.66-.68,1.85,1.85,0,0,0-2.28.28,2.07,2.07,0,0,0-.69-.56A2,2,0,0,0,327.85,682.38Z" transform="translate(0.84 -5.8)"/><path class="cls-31" d="M407.54,544.69c-6.73,14.56-24.13,52.59-33.84,76.87-8.33,20.83-4.85,39.65,7.28,63.11,3.09,6,27.11,46.12,27.11,46.12s-29.13,13.76-63.92,15c10.11,11.73,20.63,15.78,20.63,15.78s29.13-1.62,61.49-17.8c33.67-16.83,38.84-40.46,38.84-40.46s-21-17.8-30.75-37.22c-5.73-11.46-12.1-29.09-12.1-43.69a58.61,58.61,0,0,1,5.16-23.4S409.16,567.34,407.54,544.69Z" transform="translate(0.84 -5.8)"/><g class="cls-6"><path class="cls-32" d="M486.68,612.82c-5.68-5.11-11-15.86-13.85-29l-.21-1,.15.76c-1.66,6-7.44,26.43-10.87,32.3-11.33,19.42-22.93,25.89-32.37,25.89-1.62,0,11.33,25.89,11.33,25.89S461.84,656.3,470,645c7.89-10.92,12.95-19.42,16.18-30.75Z" transform="translate(0.84 -5.8)"/></g><g class="cls-33"><path class="cls-28" d="M472.62,582.83c2.75,13.58,8.24,24.76,14.06,30,4.81-15.44,6.1-29,3.57-39.42C486.17,580.29,476.46,581.91,472.62,582.83Z" transform="translate(0.84 -5.8)"/></g><path class="cls-34" d="M342.43,113.75s123.91-46.46,164.7,79.06l-31.4-5.71S500,197.18,503.47,213c0,0,38.25,10.29,38.25,104.67,0,0-9.37-39.06-37.88-43.75,0,0,41.91,17.92,44.32,106.14,0,0-15.34-13.6-29.17-18,0,0,30.8,19.51,19.83,69.4,0,0-5.33-12.69-29.06-15.1l3.37,9.46-18.71-9.07S429.67,432,407.94,446.24c0,0,10.27-58.52,7-55.29-9.71,9.71-14.56,8.09-14.56,8.09s-1.62-14.56-8.09-50.17c-2.47-13.56-3.75-35.21,8.09-51.78,8.09-11.33,71.2-30.75,51.78-76.06-10-23.36-43.44-.64-37.22-6.47,51.78-48.55-8.54-10.78-17.24-19.34-31.31-30.82-61.39-4.35-70.14-17.88C318.38,163.13,356.42,124.22,342.43,113.75Z" transform="translate(0.84 -5.8)"/><path class="cls-26" d="M489.54,375.46c7.8-8.17-2.08-52.7-2.08-52.7s.58,3.33-6,31.64c-6.65,28.68-33.09,30.23-37.72,31.06l-3.44.61-24.68,4.38h0c.81,1,.73,5.28.14,11.05,4.33-2.28,16.86-4.69,23.19-5.8,2.27-.4,3.75-.63,3.75-.63,67.9-5.46,96.11,36.35,96.11,36.35C535.55,380.37,489.54,375.46,489.54,375.46Z" transform="translate(0.84 -5.8)"/><path class="cls-35" d="M408.7,445.73l-.76.51C408,446.17,408.53,445.87,408.7,445.73Z" transform="translate(0.84 -5.8)"/><path class="cls-35" d="M408.27,445c.95-3.72,2.85-13.08,4.55-23C411.38,430.36,409.21,441.25,408.27,445Z" transform="translate(0.84 -5.8)"/><path class="cls-24" d="M412.82,422c.16-.93.31-1.84.45-2.7Q413.05,420.66,412.82,422Z" transform="translate(0.84 -5.8)"/><path class="cls-24" d="M407.94,446.24c.08-.21.19-.63.34-1.2C408.14,445.55,408,446,407.94,446.24Z" transform="translate(0.84 -5.8)"/><path class="cls-24" d="M415.12,390.24a.49.49,0,0,1,.31,0A.21.21,0,0,0,415.12,390.24Z" transform="translate(0.84 -5.8)"/><path class="cls-26" d="M512.48,296.44c-42-11.88-73.54-.27-93.9,15.48C402.15,324.64,393,340,391.44,348c.16.61.32,1.24.49,1.87h0C424.79,278.09,494.91,291.72,512.48,296.44Z" transform="translate(0.84 -5.8)"/><path class="cls-26" d="M450.76,280.13c5.68-8,11.58-20.25,14.53-38.8,6.72-42.15-40.54-29.66-40.54-29.66s35.9-3.12,31.74,27.2-56.68,59.19-56.7,59.2c4.28-18.56,3.86-39.3-14.14-49.46,0,0,13.54,33.6-9,91.15-5.07-100.69-67.09-96-67.09-96,52.27,12.47,60.43,100.47,60.79,110.56-1.69,3.61-3.49,7.29-5.48,11.06,0,0,8.25,9.88,20.81-30.83l6.27,15.27h0c32.86-71.78,103-58.15,120.56-53.43,2.61.7,4.07,1.21,4.07,1.21C502.62,271,463.64,276.46,450.76,280.13Z" transform="translate(0.84 -5.8)"/><path class="cls-36" d="M519,362c13.83,4.42,29.17,18,29.17,18a250,250,0,0,0-5.09-43,133.22,133.22,0,0,0-12.52-34.28,159.25,159.25,0,0,0-18.06-6.33c-17.57-4.72-87.69-18.35-120.56,53.43h0c4.78,18.87,8.85,48.38,9,49.15.29,1.33,7-1,13.3-8.16a1.6,1.6,0,0,1,.87-.61.21.21,0,0,1,.31,0c1.87,1,.14,15.15-2.15,29-.14.86-.29,1.76-.45,2.7-1.7,10-3.6,19.31-4.55,23-.14.57-.26,1-.34,1.2l1.08-.73c19.61-12.69,85.4-28.78,85.4-28.78l18.71,9.07s.64-6.48-.5-9.1c11.57,1.68,18.29,5.88,22,9.37a41,41,0,0,1,4.17,5.37C549.8,381.55,519,362,519,362Z" transform="translate(0.84 -5.8)"/><path class="cls-37" d="M100.6,498.9c-2.45-4.91,1.05,12.08,10.51,16.29a25.32,25.32,0,0,0,18.39.53S109,515.72,100.6,498.9Z" transform="translate(0.84 -5.8)"/></g></g></svg>