<?xml version="1.0" encoding="utf-8"?>
<!-- Generator: Adobe Illustrator 22.1.0, SVG Export Plug-In . SVG Version: 6.00 Build 0) -->
<svg version="1.1" xmlns="http://www.w3.org/2000/svg" xmlns:xlink="http://www.w3.org/1999/xlink" x="0px" y="0px" viewBox="0 0 232 131" style="enable-background:new 0 0 232 131;" xml:space="preserve">
	<style type="text/css">
		.st0{fill:#E0F5FC;}
		.st1{fill:none;stroke:#00A1E0;stroke-width:2;stroke-miterlimit:10;}
		.st2{fill:none;stroke:#8CD3F8;stroke-width:2;stroke-miterlimit:10;}
		.st3{fill:#8CD3F8;}
		.st4{fill:#00A1E0;}
	</style>
	<g id="bgd">
		<path class="st0" d="M0,0h232v131H0V0z" />
	</g>
	<g id="Layer_1">
		<path class="st1" d="M76,72.5H36" />
		<path class="st1" d="M100,58.5H60" />
		<path class="st1" d="M124,35.5H84" />
		<path class="st2" d="M206,78.5H26" />
		<path class="st2" d="M206,52.5H26" />
		<path class="st2" d="M206,26.5H26" />
		<path class="st1" d="M148,26.5h-40" />
		<path class="st1" d="M172,45.5h-40" />
		<path class="st1" d="M196,35.5h-40" />
		<path class="st2" d="M206,104.5H26" />
		<g>
			<rect x="37" y="72.5" class="st3" width="14" height="32" />
			<path class="st4" d="M50,73.5v30H38v-30H50 M52,71.5H36v34h16V71.5L52,71.5z" />
		</g>
		<g>
			<rect x="61" y="58.5" class="st3" width="14" height="14" />
			<path class="st4" d="M74,59.5v12H62v-12H74 M76,57.5H60v16h16V57.5L76,57.5z" />
		</g>
		<g>
			<rect x="85" y="35.5" class="st3" width="14" height="23" />
			<path class="st4" d="M98,36.5v21H86v-21H98 M100,34.5H84v25h16V34.5L100,34.5z" />
		</g>
		<g>
			<rect x="109" y="26.5" class="st3" width="14" height="9" />
			<path class="st4" d="M122,27.5v7h-12v-7H122 M124,25.5h-16v11h16V25.5L124,25.5z" />
		</g>
		<g>
			<rect x="133" y="26.5" class="st3" width="14" height="19" />
			<path class="st4" d="M146,27.5v17h-12v-17H146 M148,25.5h-16v21h16V25.5L148,25.5z" />
		</g>
		<g>
			<rect x="157" y="35.5" class="st3" width="14" height="10" />
			<path class="st4" d="M170,36.5v8h-12v-8H170 M172,34.5h-16v12h16V34.5L172,34.5z" />
		</g>
		<g>
			<rect x="181" y="35.5" class="st3" width="14" height="69" />
			<path class="st4" d="M194,36.5v67h-12v-67H194 M196,34.5h-16v71h16V34.5L196,34.5z" />
		</g>
	</g>
</svg>
