<svg display="block" preserveAspectRatio="xMidYMid" viewBox="0 0 232 131" xmlns="http://www.w3.org/2000/svg"><path d="m0 0h232v131h-232z" fill="#dff4fd"/><path d="m34.64 24.66a3 3 0 0 1 2.14-.92 3 3 0 0 1 2.6 1.54 3.59 3.59 0 0 1 1.47-.28 3.67 3.67 0 1 1 -.72 7.26 2.66 2.66 0 0 1 -3.48 1.09 3 3 0 0 1 -5.65-.17 2.8 2.8 0 0 1 -.58.06 2.85 2.85 0 0 1 -1.42-5.3 3.27 3.27 0 0 1 5.61-3.28z" fill="#29b6f2"/><path d="m27.64 41.95h58.57v64.62h-58.57z" fill="#b4e5fa"/><path d="m86.2 41.95v64.62" fill="none" stroke="#29b6f2" stroke-miterlimit="10" stroke-width="2"/><path d="m202.36 44v60.78h-172.72v-60.78zm2-2h-176.72v64.78h176.72z" fill="#29b6f2"/><g fill="#b4e5fa"><path d="m95.96 50.17h97.81v6.09h-97.81z"/><path d="m95.96 71.3h97.81v6.09h-97.81z"/><path d="m95.96 93.24h97.81v6.09h-97.81z"/></g><g fill="#89d7f8"><path d="m36.88 50.17h40.09v6.09h-40.09z"/><path d="m36.88 71.3h40.09v6.09h-40.09z"/><path d="m36.88 93.24h40.09v6.09h-40.09z"/></g><g fill="none" stroke="#29b6f2" stroke-miterlimit="10" stroke-width="2"><path d="m27.64 63.55h176.72"/><path d="m27.64 85.14h176.72"/></g></svg>