<svg display="block" preserveAspectRatio="xMidYMid" viewBox="0 0 18 18" xmlns="http://www.w3.org/2000/svg" fill-rule="evenodd"><g><path d="M7.7,4.332A2.749,2.749,0,0,1,9.721,3.4a2.809,2.809,0,0,1,2.453,1.562,3.264,3.264,0,0,1,1.38-.332,3.58,3.58,0,0,1,3.434,3.721,3.58,3.58,0,0,1-3.434,3.721,4.253,4.253,0,0,1-.675-0.066,2.5,2.5,0,0,1-2.208,1.4,2.476,2.476,0,0,1-1.1-.266A2.846,2.846,0,0,1,6.93,15a2.884,2.884,0,0,1-2.7-2.027,3.122,3.122,0,0,1-.552.066,2.788,2.788,0,0,1-2.668-2.89A2.913,2.913,0,0,1,2.331,7.654a3.768,3.768,0,0,1-.245-1.329A3.216,3.216,0,0,1,5.183,3,3.1,3.1,0,0,1,7.7,4.332"/></g></svg>