<svg display="block" preserveAspectRatio="xMidYMid" viewBox="0 0 232 131" xmlns="http://www.w3.org/2000/svg"><path d="m0 0h232v131h-232z" fill="#efeafe"/><path d="m27.64 36.95h58.57v64.62h-58.57z" fill="#dacefc"/><g fill="none" stroke="#a487f8" stroke-miterlimit="10" stroke-width="2"><path d="m86.2 36.95v64.62"/><path d="m146.36 36.95v64.62"/><path d="m27.64 36.95h176.73v64.78h-176.73z"/></g><g fill="#dacefc"><path d="m95.96 45.17h40.09v6.09h-40.09z"/><path d="m95.96 66.3h40.09v6.09h-40.09z"/><path d="m95.96 88.24h40.09v6.09h-40.09z"/></g><path d="m36.88 45.17h40.09v6.09h-40.09z" fill="#bca7fa"/><path d="m36.88 66.3h40.09v6.09h-40.09z" fill="#bca7fa"/><path d="m36.88 88.24h40.09v6.09h-40.09z" fill="#bca7fa"/><g fill="#dacefc"><path d="m155.4 45.17h40.09v6.09h-40.09z"/><path d="m36.51 22.24h40.09v6.09h-40.09z"/><path d="m95.96 22.24h40.09v6.09h-40.09z"/><path d="m155.4 22.24h40.09v6.09h-40.09z"/><path d="m155.4 66.3h40.09v6.09h-40.09z"/><path d="m155.4 88.24h40.09v6.09h-40.09z"/></g><path d="m27.64 58.55h176.72" fill="none" stroke="#a487f8" stroke-miterlimit="10" stroke-width="2"/><path d="m27.64 80.14h176.72" fill="none" stroke="#a487f8" stroke-miterlimit="10" stroke-width="2"/></svg>