<svg width="4" height="18" viewBox="0 0 4 18" fill="none" xmlns="http://www.w3.org/2000/svg">
<path d="M2 4.25C1.03 4.25 0.25 3.47 0.25 2.5C0.25 1.54 1.04 0.75 2 0.75C2.96 0.75 3.75 1.54 3.75 2.5C3.75 3.46 2.96 4.25 2 4.25ZM2 10.75C1.03 10.75 0.25 9.97 0.25 9C0.25 8.04 1.04 7.25 2 7.25C2.96 7.25 3.75 8.04 3.75 9C3.75 9.92 2.91 10.75 2 10.75ZM2 17.25C1.03 17.25 0.25 16.47 0.25 15.5C0.25 14.54 1.04 13.75 2 13.75C2.96 13.75 3.75 14.54 3.75 15.5C3.75 16.46 2.96 17.25 2 17.25Z" fill="#ABACAD"/>
</svg>
