<svg display="block" preserveAspectRatio="xMidYMid" viewBox="0 0 232 131" xmlns="http://www.w3.org/2000/svg"><path d="m0 0h232v131h-232z" fill="#dff4fd"/><path d="m27.64 41.95h58.57v64.62h-58.57z" fill="#b4e5fa"/><path d="m86.2 41.95v64.62" fill="none" stroke="#29b6f2" stroke-miterlimit="10" stroke-width="2"/><path d="m202.36 44v60.78h-172.72v-60.78zm2-2h-176.72v64.78h176.72z" fill="#29b6f2"/><g fill="#b4e5fa"><path d="m95.96 50.17h97.81v6.09h-97.81z"/><path d="m95.96 71.3h97.81v6.09h-97.81z"/><path d="m95.96 93.24h97.81v6.09h-97.81z"/></g><g fill="#89d7f8"><path d="m36.88 50.17h40.09v6.09h-40.09z"/><path d="m36.88 71.3h40.09v6.09h-40.09z"/><path d="m36.88 93.24h40.09v6.09h-40.09z"/></g><path d="m27.64 63.55h176.72" fill="none" stroke="#29b6f2" stroke-miterlimit="10" stroke-width="2"/><path d="m27.64 85.14h176.72" fill="none" stroke="#29b6f2" stroke-miterlimit="10" stroke-width="2"/><path d="m43 27.93-6.91-6.93-.67-.67-5.21 5.21-2.38 2.38a.64.64 0 0 0 0 .9l4.76 4.76 2.83 2.83 5.21-5.21.08-.08 2.3-2.3a.64.64 0 0 0 -.01-.89zm-7.6 2.83-2.4-2.38 2.42-2.38 2.38 2.38z" fill="#29b6f2"/></svg>